inDegrees=no
num_controls=7
num_derivatives=13
num_iterations=134
num_multipliers=7
num_parameters=0
num_slacks=7
num_states=26
objective=0.448420
objective_accelerations=0.048547
objective_balance=0.007276
objective_effort=0.035994
objective_height=0.351663
objective_ligament=0.004940
solver_duration=2053.118390
status=Solve_Succeeded
success=true
DataType=double
version=3
OpenSimVersion=4.5
endheader
time	/jointset/ground_pelvis/pelvis_tilt/value	/jointset/ground_pelvis/pelvis_tx/value	/jointset/ground_pelvis/pelvis_ty/value	/jointset/hip_l/hip_flexion_l/value	/jointset/hip_l/hip_adduction_l/value	/jointset/hip_l/hip_rotation_l/value	/jointset/back/lumbar_extension/value	/jointset/patellofemoral_l/patellar_flexion_l/value	/jointset/knee_l/knee_flexion_l/value	/jointset/knee_l/knee_adduction_l/value	/jointset/knee_l/knee_rotation_l/value	/jointset/ankle_l/ankle_angle_l/value	/jointset/subtalar_l/subtalar_angle_l/value	/jointset/ground_pelvis/pelvis_tilt/speed	/jointset/ground_pelvis/pelvis_tx/speed	/jointset/ground_pelvis/pelvis_ty/speed	/jointset/hip_l/hip_flexion_l/speed	/jointset/hip_l/hip_adduction_l/speed	/jointset/hip_l/hip_rotation_l/speed	/jointset/back/lumbar_extension/speed	/jointset/patellofemoral_l/patellar_flexion_l/speed	/jointset/knee_l/knee_flexion_l/speed	/jointset/knee_l/knee_adduction_l/speed	/jointset/knee_l/knee_rotation_l/speed	/jointset/ankle_l/ankle_angle_l/speed	/jointset/subtalar_l/subtalar_angle_l/speed	/forceset/tau_hip_flexion_l	/forceset/tau_hip_adduction_l	/forceset/tau_hip_rotation_l	/forceset/tau_knee_flexion_l	/forceset/tau_ankle_angle_l	/forceset/tau_subtalar_angle_l	/forceset/tau_lumbar_extension	lambda_cid13_p0	lambda_cid13_p1	lambda_cid13_p2	lambda_cid13_p3	lambda_cid13_p4	lambda_cid13_p5	lambda_cid14_p0	/jointset/ground_pelvis/pelvis_tilt/accel	/jointset/ground_pelvis/pelvis_tx/accel	/jointset/ground_pelvis/pelvis_ty/accel	/jointset/hip_l/hip_flexion_l/accel	/jointset/hip_l/hip_adduction_l/accel	/jointset/hip_l/hip_rotation_l/accel	/jointset/back/lumbar_extension/accel	/jointset/patellofemoral_l/patellar_flexion_l/accel	/jointset/knee_l/knee_flexion_l/accel	/jointset/knee_l/knee_adduction_l/accel	/jointset/knee_l/knee_rotation_l/accel	/jointset/ankle_l/ankle_angle_l/accel	/jointset/subtalar_l/subtalar_angle_l/accel	gamma_cid13_p0	gamma_cid13_p1	gamma_cid13_p2	gamma_cid13_p3	gamma_cid13_p4	gamma_cid13_p5	gamma_cid14_p0
0	-0.1598074885638255	0.05844090154952816	0.8979867136360015	0.3774924667018715	-0.2593121747239217	-0.269991289542194	-0.01265067647494873	0.03223648243721408	0.03223648243721463	-0.1745329248765054	0.171684699388647	-0.04231377076293093	-0.009471185542110532	0	0	0	0	0	0	0	0	0	0	0	0	0	0.1450562165802533	-0.07243568997126704	-0.04971961674725471	-0.2954084358047762	0.2943102405313121	-0.04602737997100181	-0.09081593850746049	52.1685922632018	4.538373383636174	6.08954516987108	-0.8754884971837726	-589.6490938581279	-67.97550426036007	-38.9847830809197	-4.128440239064154	-2.171929684381605	-1.094065980726979	12.28198973933099	-1.239359585156291	2.975106118582645	-5.76580823596461	8.95764193128502	8.957641931285691	0.05398488242796184	0.1239767668196886	0.8781990828804076	-1.06409655523798	-1.961353660485975e-08	9.869169262821476e-08	6.508009686105101e-08	-7.495679268728645e-09	8.900596064270456e-08	1.730245651714815e-08	-8.880327069523378e-09
0.01	-0.160007255510719	0.05833399797980297	0.8979332500478419	0.3780913535943989	-0.2593738787377912	-0.2698430993271492	-0.012939783395489	0.03267401842700482	0.03267401842700476	-0.1745322594276438	0.1716880716892235	-0.04227195050135783	-0.009524593589055066	-0.0397731704211436	-0.02124761753896863	-0.01065073855497098	0.1191928583149653	-0.01227321916391404	0.02950213497381868	-0.05741534032441079	0.08710611770934892	0.08710611770934831	0.0001381003279284872	0.0006721768995438533	0.008371904677961128	-0.0106121110137443	0.1405234968518608	-0.08209449622350547	-0.04896955896836264	-0.2915809783944852	0.2883270439946548	-0.03367491430391482	-0.08681283087137946	50.70727614829043	-0.2918116487025182	6.541350314572672	-1.162966061826073	-590.8729476169469	-77.42951337247409	-38.99744300644856	-3.87473061265288	-2.081214826841813	-1.044263130152223	11.65024950088347	-1.211186077233397	2.917374082439364	-5.668490363120934	8.526936429541133	8.526936429540662	-0.005503393324546105	0.03849035970953237	0.8178634000489913	-1.049366552818418	-4.513008141123177e-08	1.076054953829071e-07	9.69247394766178e-08	1.572561478082591e-08	-4.985822469297113e-08	2.387344458709452e-08	-1.551576574186045e-08
0.02	-0.1605993491956275	0.05801861082705069	0.8977745420066785	0.3798646321947358	-0.2595562915423445	-0.2694039663832338	-0.01379086240576227	0.03397058354164241	0.03397058354164253	-0.1745300581757422	0.1716980962004355	-0.04214617574504611	-0.009682042381812221	-0.0784653476028188	-0.04169671660541718	-0.02104889060077192	0.2348783415620999	-0.02414175813680539	0.0581885457739523	-0.1123944179464871	0.1718058249699491	0.1718058249699455	0.000307160603862216	0.001330442126599289	0.01679089894772283	-0.02080814916251969	0.135990777123454	-0.09175330247574484	-0.04821950118946228	-0.2877535209842109	0.2823438474579906	-0.02132244863683044	-0.08280972323530318	49.32194042158125	-5.135462913283753	6.995491633168954	-1.566149874689186	-590.9266567828178	-86.78190487234893	-39.03479283624394	-3.912241591170484	-2.012225989877573	-1.04354867889297	11.58051472576481	-1.15842354695178	2.811961283845633	-5.278555695497717	8.47635984153527	8.476359841535469	0.0601768720289563	0.1211944323220069	0.887617001240531	-0.9808819822442246	-7.064662621760379e-08	1.165192981375995e-07	1.287693820921846e-07	3.894690883038047e-08	-1.887224100286468e-07	3.04444326570409e-08	-2.215120441419751e-08
0.03	-0.1615728957451778	0.05750249323886832	0.8975128510169518	0.3827779941963849	-0.2598552905478411	-0.2686818631878247	-0.01517954608488414	0.0361028959838957	0.03610289598389593	-0.1745259462971203	0.1717146988991466	-0.04193593772015266	-0.009939313028536827	-0.1160227956202697	-0.06141468274047421	-0.03126801595902528	0.3472315979122251	-0.03559165884735215	0.0861140144302584	-0.1649706776305921	0.2543132143695028	0.2543132143694868	0.0005069490759241028	0.001989171141208026	0.02526228203803829	-0.03058048392883908	0.1297617970784448	-0.0858715995649163	-0.047287603886367	-0.2818279792443802	0.276540059052373	-0.02347541153439262	-0.0777250676246329	47.41149460424679	-3.989636992880524	6.954122093337004	-1.080420503635972	-590.7921399114748	-83.48752738867094	-39.09558988818722	-3.644328338518899	-1.934756298490534	-1.007939062012745	10.97835113866243	-1.128334122531443	2.765109899812478	-5.191415067766222	8.086415579535764	8.086415579533918	-0.001331030027284311	0.03805669189592875	0.8277310678575739	-0.9656170895026591	-9.167073470256433e-08	1.24685541191632e-07	1.695899365797591e-07	5.298907403685775e-08	-2.800814624695261e-07	2.294825138723408e-08	-2.95274137393754e-08
0.04	-0.1629153831612014	0.05679256111470129	0.8971495998540984	0.3867980127713396	-0.2602668007183279	-0.2676840512571944	-0.01708284315342758	0.03904997973821793	0.03904997973821771	-0.1745200787067381	0.1717378577991774	-0.04164081944337	-0.01029234859606004	-0.1522535208971763	-0.08045962380235033	-0.04136092522616045	0.456209656223394	-0.04664399113491164	0.1133302928181394	-0.2153170958306712	0.3347600873838694	0.3347600873838454	0.0006583029551023414	0.002641682390441451	0.03376694932557426	-0.03996113332223303	0.1235328170334304	-0.07998989665408657	-0.04635570658327277	-0.2759024375045556	0.270736270646753	-0.02562837443195418	-0.07264041201396457	45.570920631102	-2.854284375116647	6.912413805869236	-0.7086610743505556	-589.5992277849723	-80.0954624148593	-39.17852051028283	-3.646897043061613	-1.87762097524138	-1.018305460669334	10.90547511797355	-1.078909862354339	2.670123230160613	-4.832587398692526	8.064256564497823	8.064256564498962	0.05048995345220479	0.1199508792469445	0.8942738406846467	-0.9025449076591436	-1.126022156345061e-07	1.328363706435891e-07	2.105955614152101e-07	6.684197885481797e-08	-3.704610276342239e-07	1.516202538877255e-08	-3.691889668626135e-08
0.05	-0.1646142445237543	0.05589538391792259	0.8966858513112064	0.3918918292855646	-0.2607862856269685	-0.266417899989222	-0.01947795543120744	0.04279082589183717	0.04279082589183626	-0.1745121982265613	0.1717675850452981	-0.04126087060498361	-0.01073678535591552	-0.1873249039039291	-0.09887671785955898	-0.05138031730272479	0.5620030772199763	-0.0571380612187329	0.1397554998412056	-0.2633263991967859	0.4129809232218001	0.4129809232218074	0.0009615574327497763	0.003294339398574202	0.0421748027553968	-0.0488267507678339	0.1165506209750448	-0.07762159576588326	-0.04524867562487019	-0.2695036283557679	0.2628999426702569	-0.02353691783227147	-0.067073432829033	43.21709963446279	-3.374531669121124	7.02284215044156	0.1132772603784796	-588.7156497349122	-80.00949853830382	-39.28185486792904	-3.408190427695071	-1.808875486509408	-0.9925609962701967	10.33367404450605	-1.017439974829927	2.60701905248964	-4.728257726298408	7.63677151922377	7.636771519227781	0.02684743118077908	0.03647913425499914	0.8068319152317701	-0.8636938734762069	-1.236568388384626e-07	1.53986766012644e-07	2.114682631193501e-07	8.133241940831488e-08	-4.384427773771681e-07	3.329476107292933e-08	-3.641492070415424e-08
0.06	-0.1666580060160181	0.05481701140746207	0.8961221478645247	0.3980270597005561	-0.2614072681151339	-0.264891836728197	-0.0223417919267943	0.04730103528899168	0.04730103528899081	-0.1744999643543557	0.1718035500660328	-0.04079828506807889	-0.01126690303232017	-0.2212335468391982	-0.1166986865387119	-0.06135190598411679	0.6644924363767784	-0.06694350703991078	0.1653126914286722	-0.3090619393920001	0.4886327360910533	0.4886327360910875	0.001528981360787908	0.003889237313049124	0.05029428902924778	-0.05709731663206068	0.109568424916658	-0.07525329487767825	-0.0441416446664644	-0.2631048192069825	0.2550636146937604	-0.02144546123258723	-0.06150645364410223	40.92448198078161	-3.903127862612515	7.131899387191685	0.8312460137209565	-586.8974273498484	-79.83381198812475	-39.40366670374319	-3.414349028764867	-1.758595899630218	-1.008744781634863	10.24466275001749	-0.941185009825671	2.496520143040678	-4.377834764512427	7.550451970762315	7.550451970762601	0.1033238435303307	0.1083990605153783	0.8366004094903485	-0.7835345913843288	-1.342955943486091e-07	1.756845115255768e-07	2.106511575337507e-07	9.584970357172912e-08	-5.054814612076171e-07	5.251882145951214e-08	-3.557850434608952e-08
0.07000000000000001	-0.1690354442805748	0.05356347582756463	0.8954587377042488	0.4051716867579805	-0.2621231477136971	-0.2631143309490699	-0.02565146808892369	0.05255613594727595	0.05255613594727485	-0.1744811759774239	0.1718454051233784	-0.04025541043695242	-0.01187692124008552	-0.2540493985504115	-0.1338972325627986	-0.07133636536325891	0.7638876323718884	-0.07615096076049839	0.19006648774766	-0.3525304693191675	0.5620185634701736	0.562018563470173	0.002206353307103642	0.004474195505291248	0.05826467417266053	-0.06483362949381441	0.1026779424552803	-0.07231077912184193	-0.04316189223395352	-0.2579152526261428	0.2492292055915955	-0.02043202434951026	-0.05600172268145515	39.23070049724753	-4.077847691596137	7.195338139259236	1.084732410687639	-585.185355345837	-78.93297993248287	-39.54170923973443	-3.184504302697957	-1.683785076160127	-0.9943343187617731	9.705129150503062	-0.8983309509721027	2.446483160873512	-4.279938549623687	7.177330412704716	7.177330412699279	0.04663663743129615	0.03237914131869524	0.7748547604496661	-0.7578253935831684	-1.424536481179488e-07	1.779009948188263e-07	2.259854621655665e-07	1.039379284640364e-07	-5.438535303870142e-07	5.164719572655128e-08	-3.793325464753524e-08
